/* XPM */
static char *_de2bd57a8764a1ef3fdd1cd59b6ce70xdrt4tXcAvQWEtFp[] = {
/* columns rows colors chars-per-pixel */
"32 32 198 2 ",
"   c None",
".  c black",
"X  c #020303",
"o  c #040508",
"O  c #07090A",
"+  c #070A0B",
"@  c #090909",
"#  c #090B0D",
"$  c #090C0E",
"%  c #0A0D0E",
"&  c gray5",
"*  c #0E0E0E",
"=  c gray6",
"-  c #13110A",
";  c #0A0F12",
":  c #0A1014",
">  c #131619",
",  c #2E240A",
"<  c #352601",
"1  c #362803",
"2  c #3A2D0B",
"3  c #3D2E0B",
"4  c #3F3007",
"5  c #342B13",
"6  c #392E12",
"7  c #000223",
"8  c #000528",
"9  c #020628",
"0  c #0F1129",
"q  c #0F122B",
"w  c #101920",
"e  c #161D20",
"r  c #171F23",
"t  c #14172E",
"y  c #1D262B",
"u  c #1D272B",
"i  c #1E272B",
"p  c #1E272C",
"a  c #272829",
"s  c #26282A",
"d  c #282828",
"f  c #2A2A2A",
"g  c gray17",
"h  c gray18",
"j  c #2F2F2F",
"k  c #35322B",
"l  c #30302F",
"z  c #3D3A2E",
"x  c #2C2C34",
"c  c #2C2E38",
"v  c #27343A",
"b  c #28343B",
"n  c #28353B",
"m  c #303134",
"M  c #383837",
"N  c #303138",
"B  c #393938",
"V  c #393939",
"C  c #3B3A39",
"Z  c #38383A",
"A  c #3B3B3A",
"S  c gray23",
"D  c #3F3E3B",
"F  c #393A3C",
"G  c #3A3B3D",
"H  c #3E3E3C",
"J  c #3C3D3F",
"K  c #3E3E3E",
"L  c #3F3F3F",
"P  c #413D25",
"I  c #45382A",
"U  c #6D5312",
"Y  c #40403B",
"T  c #40403C",
"R  c #40403F",
"E  c #41413F",
"W  c #111A7E",
"Q  c #414140",
"!  c #424241",
"~  c #414A51",
"^  c #6C6146",
"/  c #524A6E",
"(  c #6B6C6C",
")  c #6C6D6F",
"_  c #957623",
"`  c #877F5D",
"'  c #BA8C18",
"]  c #BC8D1A",
"[  c #CE9C1F",
"{  c #C19322",
"}  c #C29523",
"|  c #C49622",
" . c #C5972D",
".. c #D2A124",
"X. c #DBAF3E",
"o. c #F1B726",
"O. c #FBBD21",
"+. c #FBBD23",
"@. c #FBBE26",
"#. c #FBBE27",
"$. c #FBBF28",
"%. c #FFC426",
"&. c #FFC527",
"*. c #FFC627",
"=. c #FBC02B",
"-. c #FFC229",
";. c #FBC02C",
":. c #FBC02D",
">. c #FFC72C",
",. c #FBC439",
"<. c #BA9946",
"1. c #BD9B45",
"2. c #C69B42",
"3. c #CEAC58",
"4. c #D9AE54",
"5. c #F5C957",
"6. c #FCCB51",
"7. c #F6C85E",
"8. c #FCCE5B",
"9. c #FCCE5C",
"0. c #FDD05F",
"q. c #FFD261",
"w. c #FFD363",
"e. c #FFD463",
"r. c #FFD662",
"t. c #FFD663",
"y. c #131E82",
"u. c #131E84",
"i. c #424992",
"p. c #424A93",
"a. c #454C93",
"s. c #5C66C9",
"d. c #5C67CD",
"f. c #5C67CF",
"g. c gray56",
"h. c #8F9090",
"j. c #909090",
"k. c #939393",
"l. c #949491",
"z. c #9C9C9A",
"x. c #BBB197",
"c. c #8881A6",
"v. c #999DA1",
"b. c #9A9CB3",
"n. c #9B9DB4",
"m. c #9A9DB6",
"M. c #C3B899",
"N. c #FDDA85",
"B. c #FDDB86",
"V. c #DDD0AC",
"C. c #C0C0BF",
"Z. c #FEEBBD",
"A. c #8E95DE",
"S. c #C0C0C0",
"D. c #C1C1C1",
"F. c #C2C2C3",
"G. c #C4C4C3",
"H. c #C6C6C3",
"J. c #C7C6C3",
"K. c #C3C4C7",
"L. c gray77",
"P. c #C6C7C5",
"I. c #C6C6C6",
"U. c #C7C7C6",
"Y. c #C8C8C6",
"T. c #C9C9C7",
"R. c #CACAC7",
"E. c #C5C6C9",
"W. c #C9C9C8",
"Q. c #CACAC9",
"!. c #CDCDCA",
"~. c #D0CDC4",
"^. c #DDD1C5",
"/. c #CECFD2",
"(. c #D0D0D1",
"). c #D0D1D3",
"_. c #D0D2D5",
"`. c #EFE5CA",
"'. c #FEEFC9",
"]. c #FEEFCB",
"[. c #FFF1CB",
"{. c #FFF4CE",
"}. c #FFF5D0",
"|. c #FFF6D1",
" X c #FFF7D2",
".X c #FEF3D7",
"XX c #FFF9D4",
"oX c #FEF3D8",
"OX c #D0D3F4",
"+X c #D0D4F7",
"@X c #D0D5F9",
"#X c #E3E6FD",
"$X c #E3E6FE",
"%X c #E7E9FF",
"&X c #F0F0F2",
"*X c #F0F2F5",
"=X c #FFFBF2",
"-X c white",
/* pixels */
"                                                                ",
"                                                                ",
"                        . . . . . . . . . .                     ",
"                        . . . . . . . . . .                     ",
"                    . . . . . . . . . . . . . .                 ",
"                    C R Q h * * l ! R j = . . .                 ",
"                . C z.Y.W.h.f g l.!.Q.k.j . . . . .             ",
"                . b n.%X-XH.F x n.%X-XU.R . . . . .             ",
"                . t a.A.$XH.I q i.A.#XY.E . . . . .             ",
"                . 9 y.d.+XH.! 9 W s.OXJ.E . . . . .             ",
"                . 9 u.d.@XP.R 7 W s.OXJ.E . . . . .             ",
"                4 I / c.^.M.z q i.A.#XY.E . . . . .             ",
"                |  .2.4.7.1.6 x m.%X-XU.R . . . . .             ",
"                } ..o.*.*.' < s j.Q.Y.k.j . . . . .             ",
"                2 U | *.*.] 1 o a H Q h ; . . . . .             ",
"                . 5 1.t.r.3.^ F Z f @ . . . . X @ %             ",
"                . k x. X X`.~.F.F.g.f . . . . + e p             ",
"                M ( /.-X-X-X-X-X-XI.L . . . . % p n             ",
"                C.(.&X-X-X-X-X-X-XF.L . . . . % u b             ",
"                -X-X-X-X-X-X-X-X-XF.L . . . . % u v             ",
"                -X-X-X-X-X-X-X-X-XF.L . . . . % u v             ",
"                -X-X-X-X-X-X-X-X-XC.C . . . . $ u n             ",
"                -X-X-X-X-X-X-X-X-XC.F . . . . % p n             ",
"                -X-X-X-X-X-X-X-X-X).( F L m > : r u             ",
"                -X-X-X-X-X-X-X-X-X&X_.K.E.v.~ w ; $             ",
"                Z..X=X-X-X=X.X'.'.{.{. XXXV.` P - .             ",
"        :.:.=.,.6.N.oX-X-XoXN.8.9.9.q.q.r.5.X._ , .             ",
"        :.:.:.$.#.9.'.-X-X'.8.O.+.$.#.#.#.-.>.{ 3 .             ",
"                                                                ",
"                                                                ",
"                                                                ",
"                                                                "
};
