/* XPM */
static char *_ac9ac59df394dfece5341fc1ea5ff35mipxRkIsOOUsK02B[] = {
/* columns rows colors chars-per-pixel */
"32 32 184 2 ",
"   c None",
".  c black",
"X  c #010202",
"o  c #020303",
"O  c #020304",
"+  c #040607",
"@  c #0F0B00",
"#  c #000008",
"$  c #00000A",
"%  c #040508",
"&  c #06080A",
"*  c #07090A",
"=  c #070A0B",
"-  c #04080C",
";  c #050A0F",
":  c #080A0B",
">  c gray4",
",  c #080B0D",
"<  c #0A0D0F",
"1  c #0C0C0C",
"2  c gray5",
"3  c #10100F",
"4  c #0A0F12",
"5  c #00021A",
"6  c #00031F",
"7  c #03061E",
"8  c #141617",
"9  c #121A1D",
"0  c #111A1F",
"q  c #2E2204",
"w  c #352601",
"e  c #362803",
"r  c #32290E",
"t  c #3B2D0B",
"y  c #3C2E0A",
"u  c #3F3007",
"i  c #342B12",
"p  c #342B13",
"a  c #3A2F13",
"s  c #030621",
"d  c #0F122B",
"f  c #171E21",
"g  c #141D22",
"h  c #171E22",
"j  c #171F24",
"k  c #151830",
"l  c #151933",
"z  c #1F282D",
"x  c #1F292D",
"c  c #232621",
"v  c #272829",
"b  c #26282A",
"n  c gray16",
"m  c #2A2A2A",
"M  c #2D2D2D",
"N  c #2D2D2E",
"B  c gray18",
"V  c #31312E",
"C  c #30302F",
"Z  c #35332C",
"A  c #3F3B2F",
"S  c #2C2E38",
"D  c #313130",
"F  c #303031",
"G  c #32333B",
"H  c #363738",
"J  c #32343E",
"K  c gray22",
"L  c #393939",
"P  c #38393B",
"I  c #3B3B3A",
"U  c #3C3C3B",
"Y  c #3A3B3F",
"T  c #3C3D3F",
"R  c #45382B",
"E  c #6D5312",
"W  c #6D5E38",
"Q  c #6E5F39",
"!  c #0E1560",
"~  c #0F1765",
"^  c #414140",
"/  c #424241",
"(  c #414449",
")  c #454C50",
"_  c #6C6146",
"`  c #535B61",
"'  c #524B71",
"]  c #6E6E6F",
"[  c #6F6F6F",
"{  c #906F1B",
"}  c #B0861E",
"|  c #BA8C18",
" . c #BC8D1A",
".. c #CE9C1F",
"X. c #C19422",
"o. c #C39623",
"O. c #C49622",
"+. c #C5982D",
"@. c #CFA12F",
"#. c #D2A124",
"$. c #D2A431",
"%. c #F1B726",
"&. c #FBBD21",
"*. c #FBBD23",
"=. c #FDBE23",
"-. c #FBBE26",
";. c #FBBE27",
":. c #FFC426",
">. c #FFC527",
",. c #FFC627",
"<. c #FFC329",
"1. c #FFC92E",
"2. c #FFC82F",
"3. c #BB9947",
"4. c #C79C44",
"5. c #C09E48",
"6. c #CEAC58",
"7. c #DAAF57",
"8. c #EEBF4C",
"9. c #F0C250",
"0. c #FCCE5B",
"q. c #FCCE5C",
"w. c #FCCF5F",
"e. c #FDD05F",
"r. c #F9CC62",
"t. c #FDD060",
"y. c #FFD662",
"u. c #FFD663",
"i. c #434A96",
"p. c #474E99",
"a. c #47509E",
"s. c #8E8E8E",
"d. c #8F9090",
"f. c #909090",
"g. c #979694",
"h. c #969796",
"j. c #999B9C",
"k. c #BEB399",
"l. c #8A83AA",
"z. c #9A9DB8",
"x. c #9EA1B9",
"c. c #9EA2BE",
"v. c gray",
"b. c #C8BD9E",
"n. c #D0C19A",
"m. c #D0C19B",
"M. c #FDDA85",
"N. c #FEDC87",
"B. c #BFBFC0",
"V. c #9198E3",
"C. c #C0C0C0",
"Z. c gray76",
"A. c #C6C6C5",
"S. c #C9C9C6",
"D. c #C3C5C8",
"F. c #C5C6C9",
"G. c #C5C7CB",
"H. c #CACAC9",
"J. c #CDCDCA",
"K. c #D0CDC4",
"L. c #CDD0D3",
"P. c #D1D2D5",
"I. c #D5D5D5",
"U. c #D5D5D6",
"Y. c gray84",
"T. c #E2D6CB",
"R. c #EFE5CA",
"E. c #FEEFC9",
"W. c #FEEFCA",
"Q. c #FEEFCB",
"!. c #FFF2CD",
"~. c #FFF4CF",
"^. c #FFF5D0",
"/. c #FFF6D1",
"(. c #FEF3D7",
"). c #FEF3D8",
"_. c #FFF4D9",
"`. c #FFF7DB",
"'. c #E8EBFF",
"]. c #F3F4F5",
"[. c gray96",
"{. c #FFFBF2",
"}. c #FFFEF5",
"|. c white",
/* pixels */
"                                                                ",
"                                                                ",
"                                                                ",
"                                                                ",
"                                                                ",
"                                                                ",
"                                                                ",
"                                                                ",
"                    . . . . . . . . . .                         ",
"                    . . . . . . . . . .                         ",
"                . . . . . . . . . . . . . .                     ",
"                . . . . . . . . . . . . . .                     ",
"            . . . . . . . . . . . . . . . . . .                 ",
"            . . . . . . . . . . . . . . . . . .                 ",
"            . . . . . . . . . . . . . . . . . .                 ",
"            . $ s l J F 3 $ 7 l G C 3 . . . . .                 ",
"            . s ~ a.c.h.C 5 ! p.x.g.F . . . . .                 ",
"            u R ' l.T.m.R d i.V.'.J./ . . o > 4                 ",
"            O.+.5.7.r.3.a S z.'.|.H./ . . , f x                 ",
"            X.#.%.>.>.| e b f.S.A.f.B . . & f x                 ",
"            t E ..>.>. .e % b U I m 2 . . O , <                 ",
"            . p 3.u.u.6._ I H H I m > . . . . .                 ",
"        . . . Z k.^.~.R.K.v.v.C.C.s.m . . . . . . .             ",
"        . < m ] P.|.|.|.|.|.|.|.|.U.] B 8 & . . . .             ",
"    . . . B s.U.].|.|.|.|.|.|.|.|.].I.j.) 9 % . . . . .         ",
"    . . . T F.|.|.|.|.|.|.|.|.|.|.|.|.L.` g 4 & . . . .         ",
"    . . . Y G.|.|.|.|.|.|.|.|.|.|.|.|.G.( - g f < . . .         ",
"    . @ q Q n._.}.|.|.{.(.W.W.W.W.!.^.m.W r c j = . . .         ",
"        } @.8.N._.|.|.).M.0.w.w.w.e.e.9.$.{ p =                 ",
"        1.<.=.0.W.|.|.W.0.&.&.;.;.;.;.<.1.X.y .                 ",
"                                                                ",
"                                                                "
};
