/* XPM */
static char *_813219e243948fda6ff9bfdecf2d09dGo3AzUegzEeJcwVG[] = {
/* columns rows colors chars-per-pixel */
"32 32 50 1 ",
"  c None",
". c #FF5F1E",
"X c #FF5E1F",
"o c #FF5F1F",
"O c #FF7E0C",
"+ c #FF611F",
"@ c #FF621F",
"# c #FF641E",
"$ c #FF661E",
"% c #FF6A1D",
"& c #FF6B1D",
"* c #FF6D1C",
"= c #FF6C1D",
"- c #FF6E1C",
"; c #FF7611",
": c #FF731B",
"> c #FF7418",
", c #FF741B",
"< c #FF771A",
"1 c #FF761B",
"2 c #FF771B",
"3 c #FF701C",
"4 c #FF711C",
"5 c #FF781A",
"6 c #FF791A",
"7 c #FF7C19",
"8 c #FF7E19",
"9 c #FF5A20",
"0 c #FF5B20",
"q c #FF5B22",
"w c #FF5C20",
"e c #FF5D20",
"r c #FF5B24",
"t c #FF8408",
"y c #FF8508",
"u c #FF840B",
"i c #FF810E",
"p c #FF840C",
"a c #FF840D",
"s c #FF840E",
"d c #FF8113",
"f c #FF8312",
"g c #FF8411",
"h c #FF8315",
"j c #FF8217",
"k c #FF8317",
"l c #FF8414",
"z c #FF8019",
"x c #FF8119",
"c c #FF8218",
/* pixels */
"                                ",
"                                ",
"                                ",
"                                ",
"                                ",
"                                ",
"                00              ",
"             00 000             ",
"          r 000 000  0          ",
"            0X000000 0          ",
"            0@=w0000            ",
"            0=7X0000            ",
"        00  0%5w000w@X0         ",
"        00000wX0000@5@00        ",
"         00000000==X$X00        ",
"        000000X=X:<00000        ",
"       00000X@%x=5100000        ",
"       0000w0=xkjj5w0000        ",
"       000ww=xjppgx5ww00        ",
"        00w:7gp  pgx<@00        ",
"         0wxjtt   pd<w0         ",
"         0w1itt    O@w          ",
"          0w;t     OXX          ",
"         0rw<pt  ttOX           ",
"                                ",
"                                ",
"                                ",
"                                ",
"                                ",
"                                ",
"                                ",
"                                "
};
