/* XPM */
static char *_47d396f0ad04d298fa9fc83b2a93f91iyLvbIWA9T2z81N5[] = {
/* columns rows colors chars-per-pixel */
"32 32 44 1 ",
"  c None",
". c #FF5D1F",
"X c #FF5E1F",
"o c #FF5F1F",
"O c #FF611F",
"+ c #FF631E",
"@ c #FF621F",
"# c #FF651E",
"$ c #FF651F",
"% c #FF661F",
"& c #FF671F",
"* c #FF681D",
"= c #FF6B1D",
"- c #FF6C1D",
"; c #FF731B",
": c #FF751B",
"> c #FF761B",
", c #FF711C",
"< c #FF721C",
"1 c #FF731C",
"2 c #FF791A",
"3 c #FF7A1A",
"4 c #FF7D19",
"5 c #FF7E19",
"6 c #FF7F19",
"7 c #FF7D1A",
"8 c #FF5920",
"9 c #FF5A20",
"0 c #FF5B20",
"q c #FF5C20",
"w c #FF5D20",
"e c #FF5C21",
"r c #FF5D21",
"t c #FF5F20",
"y c #FF5E21",
"u c #FF5F21",
"i c #FF6120",
"p c #FF6220",
"a c #FF8118",
"s c #FF8019",
"d c #FF8119",
"f c #FF8218",
"g c #FF8318",
"h c #FF8418",
/* pixels */
"                                ",
"                                ",
"                                ",
"                                ",
"                                ",
"                                ",
"                                ",
"                9               ",
"                9               ",
"                99              ",
"            99  999             ",
"            99 9999             ",
"       9   999 9999             ",
"       99  999 9999             ",
"       9   999 99999 9          ",
"          999999w999            ",
"          99999w>=89 9          ",
"          9999w,a=89 9          ",
"       99999$+iah=99999         ",
"       9999+2>=aa,i99999        ",
"       999w2aaahha>w9999        ",
"       999.6hhhh ha>i999        ",
"        99.6haa  haa,pw9        ",
"         9w,6hh   hhapww        ",
"          9w>a     h7pww        ",
"          99>hh    apui         ",
"                                ",
"                                ",
"                                ",
"                                ",
"                                ",
"                                "
};
