/* XPM */
static char *_e1b7e0dc31f44c89de1be246f51df01LSGCD8awicckzuri[] = {
/* columns rows colors chars-per-pixel */
"32 32 40 1 ",
"  c None",
". c #FF5E1F",
"X c #FF5F1F",
"o c #FF601F",
"O c #FF611F",
"+ c #FF631E",
"@ c #FF621F",
"# c #FF651E",
"$ c #FF6D1C",
"% c #FF6C1D",
"& c #FF6E1C",
"* c #FF6F1C",
"= c #FF751A",
"- c #FF741B",
"; c #FF751B",
": c #FF771A",
"> c #FF761B",
", c #FF771B",
"< c #FF711C",
"1 c #FF751C",
"2 c #FF781A",
"3 c #FF7B1A",
"4 c #FF7D19",
"5 c #FF7F19",
"6 c #FF7E1A",
"7 c #FF7F1A",
"8 c #FF5A20",
"9 c #FF5B20",
"0 c #FF5B22",
"q c #FF5C20",
"w c #FF5D20",
"e c #FF5E20",
"r c #FF8415",
"t c #FF8119",
"y c #FF8218",
"u c #FF8318",
"i c #FF8219",
"p c #FF8418",
"a c #FF8419",
"s c #FF8519",
/* pixels */
"                                ",
"                                ",
"                                ",
"                                ",
"                                ",
"                                ",
"             99                 ",
"            999    9            ",
"            999  999            ",
"            99999999            ",
"            99999999            ",
"         9 99X#w9999 9          ",
"           99%3w9999999         ",
"          999$3w9w999999        ",
"         999%43w9$$w9999        ",
"        9999-p4<X<3w$o99        ",
"         9991ppt$3-o-#99        ",
"        99991ppptt3ow999        ",
"       999w91pssppt-ww99        ",
"       999w<6ss  ppt1@9         ",
"        99wtppp   st<@          ",
"         9w1tpp   s6ww          ",
"         9ww-p   pp6@9          ",
"          00-r     tw           ",
"                                ",
"                                ",
"                                ",
"                                ",
"                                ",
"                                ",
"                                ",
"                                "
};
