/* XPM */
static char *_c9e0d20440d49b0d9ce200d3f4daf7eGV81R82ZrkkIHdJG[] = {
/* columns rows colors chars-per-pixel */
"32 32 50 1 ",
"  c None",
". c #FF5D1F",
"X c #FF5E1F",
"o c #FF601F",
"O c #FF651E",
"+ c #FF671E",
"@ c #FF6B1D",
"# c #FF6A1E",
"$ c #FF6A1F",
"% c #FF6B1F",
"& c #FF6C1D",
"* c #FF6D1D",
"= c #FF6E1E",
"- c #FF731B",
"; c #FF741B",
": c #FF751B",
"> c #FF761B",
", c #FF711C",
"< c #FF721C",
"1 c #FF761C",
"2 c #FF7B1A",
"3 c #FF7D19",
"4 c #FF7E19",
"5 c #FF7F19",
"6 c #FF5720",
"7 c #FF5A20",
"8 c #FF5B20",
"9 c #FF5A21",
"0 c #FF5923",
"q c #FF5A22",
"w c #FF5A23",
"e c #FF5B23",
"r c #FF5C20",
"t c #FF5D20",
"y c #FF5D21",
"u c #FF5E20",
"i c #FF5E21",
"p c #FF5D22",
"a c #FF5F22",
"s c #FF6420",
"d c #FF7D20",
"f c #FF8118",
"g c #FF8019",
"h c #FF8218",
"j c #FF8318",
"k c #FF8418",
"l c #FF841A",
"z c #FF801C",
"x c #FF8420",
"c c #FF8520",
/* pixels */
"                                ",
"                                ",
"                                ",
"                                ",
"                                ",
"                                ",
"            ww                  ",
"            ww   ww  w          ",
"         6  ww  www             ",
"            www wwww w          ",
"           wwwwwwwww w          ",
"           wwwwwspww ww         ",
"        ww wwwwp2swp www        ",
"        wwwwpwwp2=ww www        ",
"        wwww==wp2$wwwwww        ",
"        wwww1<.w2$wwwwww        ",
"       wwwww>-.$2$.Ospww        ",
"       wwww6>>Ohh=$hfoww        ",
"        ww..>22khfhhhO.w        ",
"        ..w-fkl  khhho.         ",
"         w.4lhk   lz<o          ",
"          .>fhh    d.p          ",
"          ..>k     d.p          ",
"           .>kl  xxdp           ",
"                                ",
"                                ",
"                                ",
"                                ",
"                                ",
"                                ",
"                                ",
"                                "
};
