/* XPM */
static char *ba426ea13879443cf9a2bf118289ec79bufwSLpNTtWdsRP4[] = {
/* columns rows colors chars-per-pixel */
"32 32 6 1 ",
"  c None",
". c #696A6A",
"X c #847E87",
"o c #9BADB7",
"O c #CBDBFC",
"+ c white",
/* pixels */
"                                ",
"                                ",
"                                ",
"                                ",
"                                ",
"                                ",
"                                ",
"                                ",
"               ++ ++            ",
"              +++++++           ",
"             +++++++++          ",
"            +++++++++++         ",
"           +++OOO++++OO         ",
"          +OOOXXXOOOO.XX        ",
"          +XXXXXXXXXX..XX       ",
"          oXXXXXXXXXX...XX      ",
"         ++XXXXXXXXX..+..X      ",
"       +++++OXXXXXXX..O+..      ",
"      ++++++OXX.XXXX..OO++      ",
"      +++OO+++O.XXXX..XX..      ",
"     ++OOXX++O+OXXX...XX.+      ",
"     OXXX.+OO.O+.OX...+XO+      ",
"     XXXX.XXX.XO+.X..+O+XO      ",
"     XXXX.XXX.XX..XXXX.....     ",
"     XXXX.XXXXXX.X+XXXX....     ",
"     .XX.+.XXXXXX.++XXXX...     ",
"     ...++..XXXXX++OOXX...      ",
"      ..XOO..XXXXOOXX.X..       ",
"         X...XXXOXX.....        ",
"             .......            ",
"                                ",
"                                "
};
